<svg xmlns="http://www.w3.org/2000/svg" id="Layer_1" x="0" y="0" version="1.1" viewBox="0 0 200 50" xml:space="preserve">
  <defs/>
  <style>
    .st0{fill:#143a3a}.st1{fill:#303030}
  </style>
  <path d="M127.3 33.8h-10c-.3 0-.6-.2-.7-.5l-9.3-26.6c-.2-.5.2-1 .7-1h9.2c.3 0 .6.2.7.6l5.4 19.5 5.4-19.6c.1-.3.4-.6.7-.6h6.9c.5 0 .9.5.7 1-1.5 4.3-7.2 21-9.2 26.6.1.4-.2.6-.5.6z" class="st0"/>
  <path d="M148.5 24.4c0 3.8 6.2 6.2 9.5 6.3.9 0 1.9-.1 2.7-.3.2 0 .3 0 .4.2l.7 1.3c.1.2 0 .4-.2.5-2.3 1.1-5.5 1.9-10.1 1.9-20.4 0-20.3-29.4 1.2-29.4 2 0 13.7.3 13.7 8.1.1 11-17.9 11.4-17.9 11.4zm-.2-2.9s9.2-.6 9.3-8.2c.1-5.2-2.9-5.5-4.4-5.5s-4.8.7-4.9 8.6v5.1zm-41 9.9v1.9c0 .4-.2.5-.4.5H101c-3.8 0-5.8-1.8-6.2-4.2-1.9 2.5-4.6 5-9.4 5-9.6 0-8.6-7.4-8.6-8.9V6.4c0-.4.3-.8.8-.8H86c.4 0 .8.3.8.8v17.3s-.3 5.9 3.9 5.9c1.8 0 3.4-1.9 4.2-3.4V6.4c0-.4.3-.8.8-.8h8.4c.4 0 .8.3.8.8v21.3c0 1.4.7 2.7 2.3 3.3 0 .1.1.2.1.4zm87.5-6.4c-.6-4.8-6.9-6.4-14.4-11.3-2.6-1.5-2.9-5.3 1.2-5.8 6.6-.9 7.3 4.9 8 7.2.1.3.4.5.7.5h2.1c.4 0 .8-.3.8-.8V7.9c0-.3-.2-.6-.4-.7-1.2-.6-5.7-2.2-11.2-2.2-6.5 0-13.4 1.1-12.6 8.8.7 7.2 14.6 9.3 14.6 14.3 0 2.4-2.1 3.3-4.3 3.3-1.3 0-5.1-1-5.1-5.1v-.5c0-1.9-1.8-3.4-3.8-3.4-2.1 0-3.8 1.7-3.8 3.8v.4c0 1.3.7 7.7 13.9 7.7 11.1.2 14.9-4.4 14.3-9.3zM58 5.1c-9.7 0-16 5.9-16 14.7 0 8.7 6.4 14.7 16 14.7s15.8-5.9 15.8-14.7S67.6 5.1 58 5.1zm-.1 26c-3.4 0-5.6-4.6-5.6-11.4s2.2-11.4 5.6-11.4 5.5 4.6 5.5 11.4-2.1 11.4-5.5 11.4zm-15-25.4h-6.3c-1.3 0-2.4.8-2.7 2.1l-5.6 19.9h-.6l-6.6-20c-.4-1.2-1.5-1.9-2.7-1.9h-7.2c-.3-.1-.5.2-.4.5l9.3 26.6c.3.7.6.9 1.4.9h4.7c-1.9 6.5-11.9 3.3-14.4 2.6-.4-.1-.8.4-.7.8l2.2 6.4c.1.3.3.5.6.5 1.2.3 5.4 1.5 10 .6 6.2-1.3 8.7-7 9.6-9.2 1.2-2.8 8.8-26.2 9.8-29.2.1-.3-.1-.6-.4-.6z" class="st0"/>
  <path d="M18 33l-2.6-7.2c-.2-.7-.9-1.1-1.6-1.1H7.4c-1.5 0-2.6 1.5-2.1 3 .6 1.7.9 2.6 1.5 4.2.4 1.1 1.4 1.9 2.6 1.9h8.1c.4 0 .7-.4.5-.8z" class="st0"/>
  <path d="M36.9 37.4h4.8c1 0 1.7.3 2.3.8.6.6.8 1.3.8 2.2 0 .4-.1.8-.2 1.1-.1.3-.3.6-.5.8-.2.2-.4.3-.6.4-.2.1-.4.2-.6.2v.1c.2 0 .5.1.7.2.3.1.5.3.7.5.2.2.4.5.6.8.2.3.2.8.2 1.2 0 .5-.1.9-.2 1.3-.2.4-.4.8-.6 1.1s-.6.5-1 .7c-.4.2-.8.3-1.2.3h-5.3V37.4zm1.4 5.1h3.3c.6 0 1-.1 1.3-.4.3-.3.5-.7.5-1.2v-.6c0-.5-.2-.9-.5-1.2s-.8-.4-1.3-.4h-3.3v3.8zm0 5.4h3.5c.6 0 1.1-.2 1.4-.5.3-.3.5-.8.5-1.4v-.6c0-.6-.2-1-.5-1.4-.3-.3-.8-.5-1.4-.5h-3.5v4.4zM51 49.4c-.6 0-1.1-.1-1.6-.3-.5-.2-.9-.5-1.2-.9-.3-.4-.6-.9-.8-1.4-.2-.6-.3-1.2-.3-1.9s.1-1.3.3-1.9c.2-.6.4-1 .8-1.4.3-.4.8-.7 1.2-.9.5-.2 1-.3 1.6-.3.6 0 1.1.1 1.6.3.5.2.9.5 1.2.9.3.4.6.8.7 1.3.2.5.3 1.1.3 1.7v.6h-6.3v.4c0 .4.1.7.2 1 .1.3.3.6.5.8s.5.4.8.6c.3.1.7.2 1.1.2.6 0 1-.1 1.4-.4.4-.3.7-.6 1-1.1l1 .7c-.3.6-.7 1.1-1.3 1.5-.7.3-1.4.5-2.2.5zm0-8c-.4 0-.7.1-1 .2-.3.1-.6.3-.8.5-.2.2-.4.5-.5.8-.1.3-.2.7-.2 1v.1h4.8v-.2c0-.8-.2-1.4-.6-1.9-.4-.3-1-.5-1.7-.5zM58.9 49.2c-.5 0-.8-.1-1.1-.4-.2-.3-.4-.6-.4-1v-6.1H56v-1.2h.8c.3 0 .5-.1.6-.2.1-.1.2-.3.2-.6V38h1.2v2.4h1.9v1.2h-1.9V48h1.8v1.2h-1.7zM69.2 49.2c-.5 0-.9-.1-1.1-.4-.2-.3-.4-.6-.4-1h-.1c-.2.5-.5.9-.9 1.2-.4.3-1 .4-1.6.4-.9 0-1.6-.2-2.1-.7-.5-.5-.8-1.1-.8-1.9 0-.8.3-1.4.9-1.9.6-.4 1.5-.7 2.8-.7h1.7v-.9c0-.6-.2-1.1-.5-1.4-.3-.3-.9-.5-1.6-.5-.5 0-1 .1-1.3.4-.4.2-.6.6-.9.9l-.7-.7c.2-.5.6-.9 1.1-1.2.5-.3 1.2-.5 2-.5 1.1 0 1.9.3 2.5.8.6.5.9 1.2.9 2.2V48h1v1.2h-.9zm-3.9-1c.3 0 .6 0 .9-.1.3-.1.5-.2.7-.3.2-.1.4-.3.5-.5.1-.2.2-.4.2-.6v-1.4h-1.8c-.8 0-1.3.1-1.7.3-.4.2-.5.6-.5 1v.4c0 .4.2.8.5 1 .3.1.7.2 1.2.2z" class="st1"/>
</svg>
