<svg width="8" height="11" viewBox="0 0 8 11" fill="none" xmlns="http://www.w3.org/2000/svg">
<path d="M5.1678 11C4.38927 11 3.82326 10.8108 3.46544 10.4324C3.10979 10.054 2.93196 9.647 2.93196 9.2092C2.93196 9.0486 2.96232 8.9144 3.02521 8.8066C3.08593 8.6988 3.17484 8.6086 3.27894 8.5492C3.38737 8.4854 3.51965 8.4546 3.67579 8.4546C3.8341 8.4546 3.96639 8.4854 4.07265 8.5492C4.18108 8.613 4.26566 8.6988 4.32638 8.8066C4.38927 8.9166 4.41963 9.0508 4.41963 9.2092C4.41963 9.4028 4.37409 9.559 4.283 9.6822C4.19192 9.8032 4.08349 9.8846 3.95988 9.922C4.06831 10.0738 4.23746 10.1794 4.4695 10.2432C4.70155 10.3114 4.93359 10.3444 5.16563 10.3444C5.48875 10.3444 5.77934 10.2564 6.04175 10.0804C6.30198 9.9044 6.49499 9.6426 6.6186 9.2994C6.74221 8.954 6.8051 8.5646 6.8051 8.1268C6.8051 7.6516 6.7357 7.2468 6.59908 6.9102C6.46679 6.5692 6.26945 6.3184 6.00922 6.1534C5.75549 5.9928 5.46273 5.907 5.16563 5.907C4.96612 5.907 4.71889 5.9906 4.41963 6.16L3.87314 6.4372V6.16L6.33234 2.8336H2.93196V6.2854C2.93196 6.5714 2.99485 6.8068 3.11846 6.9916C3.24207 7.1764 3.43291 7.2688 3.69097 7.2688C3.89049 7.2688 4.07915 7.2006 4.26132 7.0664C4.44565 6.93 4.60396 6.765 4.73407 6.5758C4.75142 6.5384 4.77094 6.5098 4.79696 6.4944C4.81865 6.4746 4.84901 6.4636 4.8772 6.4636C4.92274 6.4636 4.97696 6.4856 5.03768 6.534C5.09623 6.6 5.12442 6.6792 5.12442 6.7672C5.11792 6.8266 5.10708 6.886 5.09406 6.9432C4.9531 7.2622 4.75793 7.5064 4.51071 7.6736C4.26782 7.8386 3.98374 7.9266 3.69097 7.9266C2.95365 7.9266 2.44402 7.7792 2.1621 7.4866C1.88018 7.1918 1.73922 6.7936 1.73922 6.2898V2.8358H0V2.1934H1.73922V0.7304L1.34237 0.3278V0H2.49824L2.93196 0.2266V2.1912L7.42749 2.1802L7.87422 2.6334L5.11792 5.4296C5.2849 5.3614 5.46056 5.3196 5.64055 5.3042C5.93765 5.3042 6.27379 5.401 6.64679 5.5946C7.02413 5.7838 7.31255 6.0434 7.5164 6.3756C7.72025 6.7034 7.85037 7.018 7.90675 7.3216C7.96964 7.6252 8 7.8936 8 8.129C8 8.6658 7.88723 9.1674 7.66387 9.6294C7.4405 10.0914 7.10003 10.4346 6.64462 10.6634C6.18921 10.8856 5.69694 11 5.1678 11Z" fill="white"/>
</svg>
