<svg width="162" height="48" viewBox="0 0 162 48" fill="none" xmlns="http://www.w3.org/2000/svg">
<path d="M149.099 -2.71055e-05H12.908C12.4115 -2.71055e-05 11.921 -2.71057e-05 11.4259 0.00237289C11.0115 0.00477289 10.6003 0.0117449 10.1819 0.0176129C9.2728 0.0270951 8.36589 0.0979844 7.46899 0.229665C6.57336 0.364212 5.70578 0.617872 4.8956 0.982065C4.08641 1.34934 3.34704 1.82657 2.70429 2.39646C2.05817 2.96474 1.51958 3.62159 1.10923 4.34176C0.697744 5.0605 0.412419 5.8307 0.263109 6.62575C0.112379 7.41979 0.0312704 8.223 0.0205099 9.02815C0.00794675 9.39607 0.00662003 9.76521 0 10.1332V37.8703C0.00662003 38.2429 0.00794675 38.6039 0.0205099 38.9766C0.0312737 39.7817 0.112383 40.5848 0.263109 41.3789C0.412007 42.1744 0.697348 42.945 1.10923 43.664C1.51939 44.3819 2.05806 45.0361 2.70429 45.6012C3.3446 46.1736 4.08445 46.6512 4.8956 47.0156C5.70577 47.3808 6.57326 47.6359 7.46899 47.7726C8.36604 47.9032 9.27286 47.9741 10.1819 47.9847C10.6003 47.9929 11.0115 47.9976 11.4259 47.9976C11.921 48 12.4115 48 12.908 48H149.099C149.586 48 150.08 48 150.567 47.9976C150.979 47.9976 151.402 47.9929 151.815 47.9847C152.722 47.9747 153.627 47.9038 154.522 47.7726C155.421 47.635 156.292 47.3799 157.106 47.0156C157.916 46.6509 158.655 46.1734 159.295 45.6012C159.94 45.0338 160.48 44.3801 160.895 43.664C161.304 42.9445 161.586 42.1739 161.733 41.3789C161.884 40.5847 161.968 39.7818 161.984 38.9766C161.989 38.6039 161.989 38.2429 161.989 37.8703C162 37.4343 162 37.0008 162 36.5577V11.4433C162 11.0039 162 10.5679 161.989 10.1332C161.989 9.76521 161.989 9.39607 161.984 9.0281C161.968 8.22288 161.884 7.41986 161.733 6.6257C161.586 5.83111 161.303 5.06098 160.895 4.34172C160.059 2.89821 158.734 1.7232 157.106 0.981957C156.292 0.618654 155.421 0.365061 154.522 0.229557C153.627 0.0972962 152.722 0.0263822 151.815 0.0174449C151.402 0.0115889 150.979 0.00455689 150.567 0.00221689C150.08 -0.000183105 149.586 -0.000183105 149.099 -0.000183105V-2.71055e-05Z" fill="#A6A6A6"/>
<path d="M11.274 46.95C10.8606 46.95 10.4572 46.9453 10.047 46.9371C9.1973 46.9274 8.34959 46.8619 7.51081 46.7414C6.7287 46.6223 5.97104 46.4007 5.26282 46.0839C4.56111 45.7698 3.92108 45.3579 3.36727 44.864C2.80544 44.376 2.3377 43.8099 1.98257 43.1882C1.62352 42.5625 1.37504 41.8919 1.24578 41.1996C1.10619 40.4557 1.03067 39.7036 1.01986 38.9496C1.01126 38.6965 1 37.8539 1 37.8539V10.1332C1 10.1332 1.01199 9.3035 1.01993 9.05975C1.03028 8.30697 1.10536 7.55597 1.24454 6.81326C1.37403 6.11909 1.62271 5.44649 1.98194 4.81874C2.33577 4.19752 2.80092 3.63102 3.35936 3.1412C3.91718 2.64673 4.55925 2.23271 5.26216 1.91424C5.96874 1.5985 6.72497 1.37847 7.50551 1.26151C8.34704 1.13979 9.19769 1.07398 10.0503 1.06464L11.2747 1.04999H150.719L151.958 1.06523C152.803 1.07411 153.645 1.13933 154.479 1.26034C155.268 1.37876 156.032 1.60033 156.746 1.91776C158.155 2.55957 159.3 3.57498 160.023 4.82167C160.377 5.44508 160.622 6.1122 160.75 6.80038C160.89 7.54918 160.969 8.30607 160.985 9.06503C160.989 9.40487 160.989 9.76991 160.989 10.1332C161 10.5832 161 11.0115 161 11.4433V36.5577C161 36.9937 161 37.4191 160.989 37.848C160.989 38.2382 160.989 38.5957 160.984 38.9636C160.968 39.709 160.891 40.4524 160.752 41.1878C160.625 41.8851 160.378 42.561 160.019 43.1918C159.662 43.8067 159.197 44.3679 158.641 44.8547C158.087 45.3512 157.446 45.7655 156.743 46.0817C156.03 46.4009 155.267 46.6233 154.479 46.7414C153.641 46.8626 152.793 46.928 151.943 46.9371C151.546 46.9453 151.129 46.95 150.725 46.95L149.254 46.9524L11.274 46.95Z" fill="black"/>
<path d="M30.7226 24.3608C30.7488 22.325 31.8161 20.4446 33.5505 19.3783C32.4514 17.8086 30.6764 16.849 28.7611 16.7891C26.746 16.5776 24.7924 17.9949 23.7656 17.9949C22.7189 17.9949 21.1379 16.8101 19.4354 16.8451C17.1954 16.9175 15.1577 18.1602 14.0679 20.1186C11.7471 24.1367 13.4782 30.0419 15.7013 33.2899C16.8136 34.8803 18.1135 36.6568 19.8145 36.5938C21.479 36.5248 22.1006 35.5324 24.1098 35.5324C26.1003 35.5324 26.6835 36.5938 28.419 36.5538C30.205 36.5248 31.3303 34.9563 32.4036 33.3508C33.2028 32.2176 33.8177 30.9651 34.2257 29.6398C32.1044 28.7426 30.7251 26.664 30.7226 24.3608V24.3608Z" fill="white"/>
<path d="M27.4446 14.653C28.4184 13.484 28.8982 11.9814 28.782 10.4643C27.2942 10.6206 25.9199 11.3316 24.9329 12.4558C23.9583 13.565 23.4646 15.0161 23.5605 16.4895C25.0682 16.505 26.4998 15.8282 27.4446 14.653V14.653Z" fill="white"/>
<path fill-rule="evenodd" clip-rule="evenodd" d="M48.0825 32.5675H53.7626L55.1255 36.5953H57.5724L52.1923 21.6937H49.6927L44.3126 36.5953H46.7185L48.0825 32.5675ZM53.1732 30.7089H48.6708L50.8916 24.1722H50.9537L53.1732 30.7089Z" fill="white"/>
<path fill-rule="evenodd" clip-rule="evenodd" d="M64.6576 36.7089C67.3845 36.7089 69.1915 34.5398 69.1915 31.1636C69.1915 27.7968 67.3739 25.6171 64.6165 25.6171C63.1977 25.5714 61.8685 26.3093 61.1572 27.5378H61.1162V25.7308H58.9575V40.1894H61.1876V34.8081H61.2392C61.9203 36.0444 63.248 36.7827 64.6576 36.7089ZM64.0283 27.5179C65.7626 27.5179 66.8993 28.964 66.8993 31.1636C66.8993 33.3832 65.7626 34.8187 64.0283 34.8187C62.3243 34.8187 61.1783 33.3527 61.1783 31.1636C61.1783 28.9945 62.3243 27.5179 64.0283 27.5179Z" fill="white"/>
<path fill-rule="evenodd" clip-rule="evenodd" d="M76.6153 36.7089C79.3423 36.7089 81.1493 34.5398 81.1493 31.1636C81.1493 27.7968 79.3317 25.6171 76.5743 25.6171C75.1554 25.5714 73.8263 26.3093 73.1149 27.5378H73.0739V25.7308H70.9153V40.1894H73.1454V34.8081H73.197C73.8781 36.0444 75.2058 36.7826 76.6153 36.7089ZM75.986 27.5179C77.7204 27.5179 78.8571 28.964 78.8571 31.1636H78.8571C78.8571 33.3831 77.7204 34.8187 75.986 34.8187C74.2821 34.8187 73.136 33.3527 73.136 31.1636C73.136 28.9945 74.2821 27.5179 75.986 27.5179Z" fill="white"/>
<path d="M89.0525 32.4433C89.2177 33.921 90.6533 34.8913 92.615 34.8913C94.4947 34.8913 95.847 33.921 95.847 32.5886C95.847 31.4319 95.0314 30.7394 93.1002 30.2647L91.1689 29.7995C88.4326 29.1386 87.1623 27.8589 87.1623 25.7823C87.1623 23.2112 89.4029 21.4452 92.5845 21.4452C95.7333 21.4452 97.8919 23.2112 97.9646 25.7823H95.7134C95.5786 24.2952 94.3493 23.3975 92.5529 23.3975C90.7564 23.3975 89.5271 24.3058 89.5271 25.6276C89.5271 26.6811 90.3122 27.3011 92.2329 27.7756L93.8747 28.1788C96.9322 28.9018 98.2025 30.13 98.2025 32.3096C98.2025 35.0975 95.9818 36.8436 92.4497 36.8436C89.145 36.8436 86.9138 35.1385 86.7697 32.4432L89.0525 32.4433Z" fill="white"/>
<path d="M103.015 23.1597V25.7308H105.081V27.4968H103.015V33.4863C103.015 34.4168 103.429 34.8504 104.337 34.8504C104.583 34.8461 104.827 34.8289 105.071 34.7988V36.5542C104.663 36.6305 104.247 36.6651 103.832 36.6574C101.633 36.6574 100.775 35.8312 100.775 33.7241V27.4968H99.1951V25.7308H100.775V23.1597H103.015Z" fill="white"/>
<path fill-rule="evenodd" clip-rule="evenodd" d="M111.431 25.5972C108.291 25.5972 106.278 27.7453 106.278 31.1636C106.278 34.5914 108.271 36.73 111.431 36.73C114.591 36.73 116.585 34.5914 116.585 31.1636C116.585 27.7452 114.581 25.5972 111.431 25.5972ZM111.431 27.4347C113.238 27.4347 114.312 28.8187 114.312 31.1636H114.312C114.312 33.5179 113.238 34.8914 111.431 34.8914C109.624 34.8914 108.55 33.5179 108.55 31.1636C108.55 28.8293 109.624 27.4347 111.431 27.4347Z" fill="white"/>
<path d="M118.423 25.7308H120.55V27.58H120.602C120.898 26.3896 121.989 25.5703 123.215 25.6171C123.472 25.6162 123.728 25.6441 123.979 25.7003V27.7862C123.655 27.6871 123.316 27.6416 122.977 27.6515C122.321 27.6249 121.687 27.8862 121.24 28.3667C120.793 28.8473 120.579 29.4991 120.653 30.1511V36.5952H118.423L118.423 25.7308Z" fill="white"/>
<path fill-rule="evenodd" clip-rule="evenodd" d="M129.583 36.73C132.04 36.73 133.961 35.3765 134.261 33.4043L132.144 33.4042C131.737 34.4123 130.717 35.0338 129.635 34.9324C128.823 34.9622 128.038 34.6421 127.479 34.0533C126.92 33.4645 126.64 32.6639 126.712 31.855V31.7203H134.385V30.9562C134.385 27.6621 132.495 25.5972 129.489 25.5972C126.433 25.5972 124.461 27.8074 124.461 31.2152C124.461 34.6125 126.422 36.73 129.583 36.73ZM132.154 30.1617L126.722 30.1617C126.721 29.4282 127.012 28.7243 127.531 28.2065C128.051 27.6887 128.756 27.3999 129.489 27.4043C130.217 27.3886 130.918 27.6773 131.424 28.2007C131.93 28.7242 132.195 29.4349 132.154 30.1617Z" fill="white"/>
<path fill-rule="evenodd" clip-rule="evenodd" d="M50.9181 11.7701C50.2654 11.1137 49.3381 10.7707 48.3914 10.8354H45.8051V17.6546H48.3914C50.5242 17.6546 51.7605 16.4023 51.7605 14.2238C51.8799 13.327 51.5707 12.4265 50.9181 11.7701ZM48.2672 16.6902H46.9172V11.7991H48.2672C48.9401 11.7635 49.5946 12.0162 50.0516 12.4881C50.5085 12.96 50.7201 13.6017 50.6285 14.2377C50.7273 14.8763 50.5187 15.5233 50.0606 15.9991C49.6025 16.4749 48.9437 16.7288 48.2672 16.6902Z" fill="white"/>
<path fill-rule="evenodd" clip-rule="evenodd" d="M54.2152 12.7755C53.3885 13.2641 52.9241 14.1568 53.0167 15.0792C52.9223 16.0026 53.3863 16.897 54.2138 17.3867C55.0412 17.8763 56.0887 17.8763 56.9162 17.3867C57.7436 16.897 58.2076 16.0026 58.1132 15.0792C58.2059 14.1568 57.7415 13.2641 56.9147 12.7755C56.088 12.2869 55.0419 12.2869 54.2152 12.7755ZM55.5667 13.3114C56.4902 13.3114 57.0163 13.9637 57.0163 15.0792H57.0163C57.0163 16.1992 56.4902 16.851 55.5667 16.851C54.6398 16.851 54.1183 16.2037 54.1183 15.0792C54.1183 13.9637 54.6398 13.3114 55.5667 13.3114Z" fill="white"/>
<path d="M64.8879 17.6545H63.7816L62.6648 13.8643H62.5805L61.4683 17.6545H60.3726L58.8832 12.5083H59.9648L60.9328 16.4352H61.0125L62.1234 12.5083H63.1465L64.2574 16.4352H64.3418L65.3051 12.5083H66.3715L64.8879 17.6545Z" fill="white"/>
<path d="M67.6242 12.5083H68.6507V13.3258H68.7304C69.0075 12.7239 69.6551 12.3557 70.3429 12.409C70.8755 12.3708 71.3974 12.5654 71.7612 12.9378C72.1251 13.3101 72.2914 13.8198 72.2132 14.323V17.6544H71.1468V14.5781C71.1468 13.7511 70.7695 13.3398 69.9808 13.3398C69.6195 13.3238 69.269 13.4588 69.021 13.7094C68.773 13.9601 68.6523 14.3014 68.6905 14.6439V17.6545H67.6241L67.6242 12.5083Z" fill="white"/>
<path d="M73.9125 10.4994H74.9789V17.6545H73.9125V10.4994Z" fill="white"/>
<path fill-rule="evenodd" clip-rule="evenodd" d="M77.66 12.7754C76.8332 13.264 76.3687 14.1567 76.4613 15.0792C76.367 16.0026 76.8311 16.897 77.6586 17.3866C78.4861 17.8763 79.5336 17.8763 80.3611 17.3866C81.1886 16.897 81.6527 16.0026 81.5584 15.0792C81.6509 14.1567 81.1864 13.264 80.3597 12.7754C79.5329 12.2868 78.4868 12.2868 77.66 12.7754ZM79.0113 13.3113C79.9347 13.3113 80.4609 13.9637 80.4609 15.0792H80.4609C80.4609 16.1992 79.9347 16.8509 79.0113 16.8509C78.0844 16.8509 77.5629 16.2036 77.5629 15.0792C77.5629 13.9637 78.0843 13.3113 79.0113 13.3113Z" fill="white"/>
<path fill-rule="evenodd" clip-rule="evenodd" d="M84.6908 14.6629C83.4053 14.7388 82.681 15.2728 82.681 16.1992C82.6828 16.6384 82.8797 17.0564 83.2228 17.3498C83.566 17.6433 84.0235 17.7848 84.4822 17.7393C85.1366 17.7681 85.7566 17.4595 86.1053 16.9313H86.1896V17.6545H87.2162V14.1383C87.2162 13.0513 86.4521 12.409 85.0974 12.409C83.8717 12.409 82.9986 12.976 82.8896 13.8599H83.922C84.0404 13.496 84.4529 13.2879 85.0482 13.2879C85.7771 13.2879 86.1545 13.5948 86.1545 14.1383V14.5825L84.6908 14.6629ZM86.1545 15.3292V15.7594C86.1311 16.0874 85.969 16.3924 85.7053 16.6044C85.4415 16.8165 85.0987 16.9175 84.7553 16.8844C84.1752 16.8844 83.7533 16.6149 83.7533 16.1517C83.7533 15.698 84.0908 15.457 84.8349 15.4095L86.1545 15.3292Z" fill="white"/>
<path fill-rule="evenodd" clip-rule="evenodd" d="M90.8608 12.423C89.4955 12.423 88.6178 13.4531 88.6178 15.0792C88.6178 16.7092 89.4862 17.7394 90.8608 17.7393C91.5577 17.7638 92.2113 17.4179 92.5576 16.8415H92.642V17.6545H93.6639V10.4994H92.5975V13.3258H92.5178C92.1958 12.7445 91.5501 12.3927 90.8608 12.423ZM91.1632 16.8275C90.2596 16.8275 89.7194 16.1707 89.7194 15.0792H89.7194C89.7194 13.9966 90.2655 13.3353 91.1632 13.3353C92.0561 13.3353 92.6174 14.0111 92.6174 15.0837C92.6174 16.1613 92.062 16.8275 91.1632 16.8275Z" fill="white"/>
<path fill-rule="evenodd" clip-rule="evenodd" d="M99.2744 12.7755C98.4477 13.2641 97.9833 14.1568 98.0759 15.0792C97.9815 16.0026 98.4455 16.897 99.273 17.3867C100.1 17.8763 101.148 17.8763 101.975 17.3867C102.803 16.897 103.267 16.0026 103.172 15.0792C103.265 14.1568 102.801 13.2641 101.974 12.7755C101.147 12.2869 100.101 12.2869 99.2744 12.7755ZM100.626 13.3114C101.549 13.3114 102.076 13.9637 102.076 15.0792C102.076 16.1992 101.549 16.851 100.626 16.851C99.699 16.851 99.1775 16.2037 99.1775 15.0792C99.1775 13.9637 99.699 13.3114 100.626 13.3114Z" fill="white"/>
<path d="M104.603 12.5083H105.63V13.3258H105.71C105.987 12.7239 106.634 12.3557 107.322 12.409C107.855 12.3708 108.376 12.5654 108.74 12.9378C109.104 13.3101 109.271 13.8198 109.192 14.323V17.6544H108.126V14.5781C108.126 13.7511 107.749 13.3398 106.96 13.3398C106.599 13.3238 106.248 13.4588 106 13.7094C105.752 13.9601 105.631 14.3014 105.67 14.6439V17.6545H104.603V12.5083Z" fill="white"/>
<path d="M115.218 11.2271V12.5317H116.389V13.3872H115.218V16.0334C115.218 16.5725 115.451 16.8085 115.982 16.8085C116.118 16.8081 116.254 16.8003 116.389 16.7851V17.6311C116.197 17.6637 116.003 17.6811 115.809 17.683C114.623 17.683 114.151 17.2856 114.151 16.2935V13.3872H113.293V12.5317H114.151V11.2271H115.218Z" fill="white"/>
<path d="M117.845 10.4994H118.902V13.3353H118.987C119.277 12.7282 119.936 12.3595 120.634 12.4135C121.164 12.386 121.679 12.5849 122.039 12.9559C122.399 13.3269 122.566 13.8314 122.495 14.332V17.6545H121.428V14.5825C121.428 13.7605 121.026 13.3442 120.272 13.3442C119.901 13.3153 119.536 13.4437 119.274 13.6953C119.011 13.9468 118.879 14.2958 118.912 14.6489V17.6545H117.846L117.845 10.4994Z" fill="white"/>
<path fill-rule="evenodd" clip-rule="evenodd" d="M126.372 17.7539C127.428 17.863 128.414 17.2358 128.713 16.265L127.687 16.265C127.431 16.7021 126.923 16.9485 126.401 16.8889C125.999 16.8932 125.613 16.7356 125.339 16.4549C125.065 16.1742 124.929 15.7965 124.962 15.4146V15.3577H128.778V15.0033C128.778 13.3873 127.871 12.409 126.367 12.409C125.645 12.4032 124.956 12.6961 124.478 13.2119C124 13.7278 123.78 14.4157 123.876 15.0976C123.777 15.7776 123.998 16.4645 124.478 16.976C124.959 17.4876 125.652 17.772 126.372 17.7539ZM127.692 14.6066H124.962C124.957 14.2517 125.103 13.91 125.367 13.659C125.63 13.408 125.989 13.269 126.361 13.2734C126.729 13.2654 127.083 13.4056 127.336 13.6595C127.59 13.9134 127.719 14.2573 127.692 14.6066Z" fill="white"/>
</svg>
