<svg width="162" height="48" viewBox="0 0 162 48" fill="none" xmlns="http://www.w3.org/2000/svg">
<path d="M156 48H6C2.64 48 0 45.36 0 42V6C0 2.64 2.64 0 6 0H156C159.36 0 162 2.64 162 6V42C162 45.24 159.36 48 156 48Z" fill="black"/>
<path fill-rule="evenodd" clip-rule="evenodd" d="M6 0H156C159.36 0 162 2.76 162 6V42C162 45.36 159.36 48 156 48H6C2.64 48 0 45.36 0 42V6C0 2.64 2.64 0 6 0ZM161.04 6C161.04 3.24 158.76 0.96 156 0.96H6C3.24 0.96 0.96 3.24 0.96 6V42C0.96 44.76 3.24 47.04 6 47.04H156C158.76 47.04 161.04 44.76 161.04 42V6Z" fill="#A6A6A6"/>
<path d="M56.8801 12.24C56.8801 13.2 56.6401 14.04 56.0401 14.64C55.3201 15.36 54.4801 15.72 53.4001 15.72C52.3201 15.72 51.4801 15.36 50.7601 14.64C50.0401 13.92 49.6801 13.08 49.6801 12C49.6801 10.92 50.0401 10.08 50.7601 9.36003C51.4801 8.64003 52.3201 8.28003 53.4001 8.28003C53.8801 8.28003 54.3601 8.40003 54.8401 8.64003C55.3201 8.88003 55.6801 9.12003 55.9201 9.48003L55.3201 10.08C54.8401 9.48003 54.2401 9.24003 53.4001 9.24003C52.6801 9.24003 51.9601 9.48003 51.4801 10.08C50.8801 10.56 50.6401 11.28 50.6401 12.12C50.6401 12.96 50.8801 13.68 51.4801 14.16C52.0801 14.64 52.6801 15 53.4001 15C54.2401 15 54.8401 14.76 55.4401 14.16C55.8001 13.8 56.0401 13.32 56.0401 12.72H53.4001V11.88H56.8801C56.8801 11.88 56.8801 12.12 56.8801 12.24Z" fill="white" stroke="white" stroke-width="0.2"/>
<path d="M62.4001 9.24002H59.1601V11.52H62.1601V12.36H59.1601V14.64H62.4001V15.6H58.2001V8.40002H62.4001V9.24002Z" fill="white" stroke="white" stroke-width="0.2"/>
<path d="M66.3601 15.6H65.4001V9.24002H63.3601V8.40002H68.4001V9.24002H66.3601V15.6Z" fill="white" stroke="white" stroke-width="0.2"/>
<path d="M71.88 15.6V8.40002H72.84V15.6H71.88Z" fill="white" stroke="white" stroke-width="0.2"/>
<path d="M76.92 15.6H75.96V9.24002H73.92V8.40002H78.84V9.24002H76.8V15.6H76.92Z" fill="white" stroke="white" stroke-width="0.2"/>
<path fill-rule="evenodd" clip-rule="evenodd" d="M85.6801 15.72C86.7601 15.72 87.6001 15.36 88.3201 14.64C89.0401 13.92 89.4001 13.08 89.4001 12C89.4001 10.92 89.0401 10.08 88.3201 9.36003C87.6001 8.64003 86.7601 8.28003 85.6801 8.28003C84.6001 8.28003 83.7601 8.64003 83.0401 9.36003C82.3201 10.08 81.9601 10.92 81.9601 12C81.9601 13.08 82.3201 13.92 83.0401 14.64C83.7601 15.36 84.6001 15.72 85.6801 15.72ZM85.6801 14.88C84.9601 14.88 84.2401 14.52 83.7601 14.04C83.1601 13.56 82.9201 12.84 82.9201 12C82.9201 11.16 83.2801 10.44 83.7601 9.96003C84.2401 9.36003 84.9601 9.12003 85.6801 9.12003C86.4001 9.12003 87.1201 9.48003 87.6001 9.96003C88.2001 10.44 88.4401 11.16 88.4401 12C88.4401 12.84 88.0801 13.56 87.6001 14.04C87.1201 14.64 86.4001 14.88 85.6801 14.88Z" fill="white"/>
<path d="M83.7601 14.04L83.8312 13.9689L83.8226 13.9619L83.7601 14.04ZM83.7601 9.96003L83.8312 10.0312L83.8382 10.0225L83.7601 9.96003ZM87.6001 9.96003L87.5289 10.0312L87.5376 10.0381L87.6001 9.96003ZM87.6001 14.04L87.5289 13.9689L87.522 13.9776L87.6001 14.04ZM88.2494 14.5693C87.5482 15.2705 86.7336 15.62 85.6801 15.62V15.82C86.7866 15.82 87.652 15.4495 88.3908 14.7107L88.2494 14.5693ZM89.3001 12C89.3001 13.0536 88.9506 13.8681 88.2494 14.5693L88.3908 14.7107C89.1296 13.972 89.5001 13.1065 89.5001 12H89.3001ZM88.2494 9.43074C88.9506 10.1319 89.3001 10.9465 89.3001 12H89.5001C89.5001 10.8936 89.1296 10.0281 88.3908 9.28932L88.2494 9.43074ZM85.6801 8.38003C86.7336 8.38003 87.5482 8.72953 88.2494 9.43074L88.3908 9.28932C87.652 8.55053 86.7866 8.18003 85.6801 8.18003V8.38003ZM83.1108 9.43074C83.812 8.72953 84.6266 8.38003 85.6801 8.38003V8.18003C84.5736 8.18003 83.7082 8.55053 82.9694 9.28932L83.1108 9.43074ZM82.0601 12C82.0601 10.9465 82.4096 10.1319 83.1108 9.43074L82.9694 9.28932C82.2306 10.0281 81.8601 10.8936 81.8601 12H82.0601ZM83.1108 14.5693C82.4096 13.8681 82.0601 13.0536 82.0601 12H81.8601C81.8601 13.1065 82.2306 13.972 82.9694 14.7107L83.1108 14.5693ZM85.6801 15.62C84.6266 15.62 83.812 15.2705 83.1108 14.5693L82.9694 14.7107C83.7082 15.4495 84.5736 15.82 85.6801 15.82V15.62ZM83.6894 14.1107C84.1845 14.6059 84.9289 14.98 85.6801 14.98V14.78C84.9913 14.78 84.2956 14.4342 83.8308 13.9693L83.6894 14.1107ZM82.8201 12C82.8201 12.8585 83.0659 13.6128 83.6976 14.1181L83.8226 13.9619C83.2543 13.5073 83.0201 12.8216 83.0201 12H82.8201ZM83.6894 9.88932C83.1924 10.3863 82.8201 11.131 82.8201 12H83.0201C83.0201 11.189 83.3677 10.4938 83.8308 10.0307L83.6894 9.88932ZM85.6801 9.02003C84.9391 9.02003 84.1861 9.26737 83.682 9.89756L83.8382 10.0225C84.294 9.45269 84.9811 9.22003 85.6801 9.22003V9.02003ZM87.6708 9.88932C87.1756 9.39417 86.4313 9.02003 85.6801 9.02003V9.22003C86.3689 9.22003 87.0645 9.56589 87.5294 10.0307L87.6708 9.88932ZM88.5401 12C88.5401 11.1416 88.2943 10.3873 87.6626 9.88194L87.5376 10.0381C88.1059 10.4928 88.3401 11.1785 88.3401 12H88.5401ZM87.6708 14.1107C88.1677 13.6138 88.5401 12.869 88.5401 12H88.3401C88.3401 12.811 87.9924 13.5063 87.5294 13.9693L87.6708 14.1107ZM85.6801 14.98C86.4211 14.98 87.174 14.7327 87.6782 14.1025L87.522 13.9776C87.0661 14.5474 86.3791 14.78 85.6801 14.78V14.98Z" fill="white"/>
<path d="M90.7201 15.6V8.40002H91.8001L95.2801 14.04V14.04V12.6V8.40002H96.2401V15.6H95.2801L91.5601 9.72002V9.72002V11.16V15.6H90.7201Z" fill="white" stroke="white" stroke-width="0.2"/>
<path fill-rule="evenodd" clip-rule="evenodd" d="M57.2399 27.72V29.88H62.3999C62.2799 31.08 61.7999 32.04 61.1999 32.64C60.4799 33.36 59.2799 34.2 57.2399 34.2C53.9999 34.2 51.5999 31.68 51.5999 28.44C51.5999 25.2 54.1199 22.68 57.2399 22.68C58.9199 22.68 60.2399 23.4 61.1999 24.24L62.7599 22.68C61.4399 21.48 59.7599 20.52 57.3599 20.52C53.0399 20.52 49.3199 24.12 49.3199 28.44C49.3199 32.76 53.0399 36.36 57.3599 36.36C59.7599 36.36 61.4399 35.64 62.8799 34.08C64.3199 32.64 64.7999 30.6 64.7999 29.04C64.7999 28.56 64.7999 28.08 64.6799 27.72H57.2399ZM70.5599 26.16C67.6799 26.16 65.3999 28.32 65.3999 31.32C65.3999 34.2 67.6799 36.48 70.5599 36.48C73.4399 36.48 75.7199 34.32 75.7199 31.32C75.7199 28.2 73.4399 26.16 70.5599 26.16ZM76.5599 31.32C76.5599 28.32 78.8399 26.16 81.7199 26.16C84.5999 26.16 86.8799 28.2 86.8799 31.32C86.8799 34.32 84.5999 36.48 81.7199 36.48C78.8399 36.48 76.5599 34.2 76.5599 31.32ZM78.8399 31.2C78.8399 33 80.1599 34.32 81.7199 34.32C83.2799 34.32 84.5999 33 84.5999 31.2C84.5999 29.28 83.2799 28.08 81.7199 28.08C80.1599 28.08 78.8399 29.4 78.8399 31.2ZM67.6799 31.2C67.6799 33 68.9999 34.32 70.5599 34.32C72.1199 34.32 73.4399 33 73.4399 31.2C73.4399 29.28 72.1199 28.08 70.5599 28.08C68.9999 28.08 67.6799 29.4 67.6799 31.2ZM107.4 26.16C110.04 26.16 111.24 28.2 111.72 29.4L111.96 30L105.12 32.88C105.72 33.96 106.44 34.44 107.64 34.44C108.84 34.44 109.56 33.84 110.16 33L111.84 34.2C111.36 35.04 109.92 36.48 107.64 36.48C104.76 36.48 102.6 34.2 102.6 31.32C102.6 28.2 104.76 26.16 107.4 26.16ZM104.76 31.08C104.76 29.16 106.32 28.08 107.4 28.08C108.24 28.08 109.08 28.56 109.32 29.16L104.76 31.08ZM101.4 36H99.1199V21H101.4V36ZM95.5199 27.24C94.9199 26.64 93.9599 26.04 92.7599 26.04C90.2399 26.04 87.8399 28.32 87.8399 31.2C87.8399 34.08 90.1199 36.24 92.7599 36.24C93.9599 36.24 94.9199 35.64 95.3999 35.04H95.5199V35.76C95.5199 37.68 94.4399 38.76 92.7599 38.76C91.4399 38.76 90.4799 37.8 90.2399 36.96L88.3199 37.8C88.9199 39.12 90.3599 40.8 92.8799 40.8C95.5199 40.8 97.6799 39.24 97.6799 35.52V26.4H95.5199V27.24ZM89.9999 31.2C89.9999 33 91.3199 34.32 92.8799 34.32C94.4399 34.32 95.6399 33 95.6399 31.2C95.6399 29.4 94.4399 28.08 92.8799 28.08C91.3199 28.08 89.9999 29.4 89.9999 31.2ZM122.16 21H116.76V36H119.04V30.36H122.16C124.68 30.36 127.08 28.56 127.08 25.68C127.08 22.8 124.68 21 122.16 21ZM119.04 28.2H122.28C123.84 28.2 124.8 26.88 124.92 25.56C124.92 24.48 123.96 23.04 122.28 23.04H119.04V28.2ZM136.08 26.04C134.4 26.04 132.72 26.76 132.12 28.32L134.16 29.16C134.64 28.32 135.36 28.08 136.2 28.08C137.4 28.08 138.48 28.8 138.6 30V30.12C138.24 29.88 137.28 29.52 136.32 29.52C134.16 29.52 132 30.72 132 32.88C132 34.92 133.8 36.24 135.72 36.24C137.28 36.24 138 35.52 138.6 34.8H138.72V36H140.88V30.24C140.64 27.6 138.6 26.04 136.08 26.04ZM134.04 33C134.04 33.96 135.12 34.32 135.84 34.32C137.04 34.32 138.24 33.36 138.48 31.92C138.419 31.8958 138.36 31.8715 138.301 31.8475C137.778 31.634 137.303 31.44 136.44 31.44C135.36 31.44 134.04 31.8 134.04 33ZM148.44 26.4L145.92 32.88H145.8L143.16 26.4H140.76L144.72 35.52L142.44 40.56H144.72L150.84 26.4H148.44ZM130.56 36H128.28V21H130.56V36Z" fill="white"/>
<path d="M12.48 9C12.12 9.36 11.88 9.96 11.88 10.68V37.2C11.88 37.92 12.12 38.52 12.48 38.88L12.6 39L27.48 24.12V24V23.88L12.48 9V9Z" fill="url(#google-play-linear)"/>
<path d="M32.4 29.16L27.48 24.24V24V23.88L32.4 18.96L32.52 19.08L38.4 22.44C40.08 23.4 40.08 24.96 38.4 25.92L32.4 29.16V29.16Z" fill="url(#paint1_linear)"/>
<path d="M32.52 29.04L27.48 24L12.48 39C13.08 39.6 13.92 39.6 15 39.12L32.52 29.04" fill="url(#paint2_linear)"/>
<path d="M32.52 18.96L15 9C13.92 8.4 13.08 8.52 12.48 9.12L27.48 24L32.52 18.96Z" fill="url(#paint3_linear)"/>
<path opacity="0.2" d="M32.4 28.92L15 38.76C14.04 39.36 13.2 39.24 12.6 38.76V38.76L12.48 38.88V38.88L12.6 39V39C13.2 39.48 14.04 39.6 15 39L32.4 28.92V28.92Z" fill="black"/>
<path opacity="0.12" d="M12.48 38.76C12.12 38.4 12 37.8 12 37.08V37.2C12 37.92 12.24 38.52 12.6 38.88V38.76H12.48Z" fill="black"/>
<path opacity="0.12" d="M38.3999 25.56L32.3999 28.92L32.5199 29.04L38.3999 25.68C39.2399 25.2 39.5999 24.6 39.5999 24V24C39.5999 24.6 39.1199 25.08 38.3999 25.56Z" fill="black"/>
<path opacity="0.25" d="M15 9.12001L38.4 22.44C39.12 22.92 39.6 23.4 39.6 24V24C39.6 23.4 39.24 22.8 38.4 22.32L15 9.00001C13.32 8.04001 12 8.88001 12 10.8V10.92C12 9.00001 13.32 8.16001 15 9.12001Z" fill="white"/>
<defs>
<linearGradient id="google-play-linear" x1="20.9235" y1="-8.91267" x2="-2.91772" y2="-2.46599" gradientUnits="userSpaceOnUse">
<stop stop-color="#00A0FF"/>
<stop offset="0.00657445" stop-color="#00A1FF"/>
<stop offset="0.2601" stop-color="#00BEFF"/>
<stop offset="0.5122" stop-color="#00D2FF"/>
<stop offset="0.7604" stop-color="#00DFFF"/>
<stop offset="1" stop-color="#00E3FF"/>
</linearGradient>
<linearGradient id="paint1_linear" x1="40.6013" y1="11.8437" x2="11.565" y2="11.8437" gradientUnits="userSpaceOnUse">
<stop stop-color="#FFE000"/>
<stop offset="0.4087" stop-color="#FFBD00"/>
<stop offset="0.7754" stop-color="#FFA500"/>
<stop offset="1" stop-color="#FF9C00"/>
</linearGradient>
<linearGradient id="paint2_linear" x1="12.0993" y1="16.2168" x2="-7.05919" y2="48.382" gradientUnits="userSpaceOnUse">
<stop stop-color="#FF3A44"/>
<stop offset="1" stop-color="#C31162"/>
</linearGradient>
<linearGradient id="paint3_linear" x1="0.819221" y1="4.89551" x2="9.30681" y2="19.2784" gradientUnits="userSpaceOnUse">
<stop stop-color="#32A071"/>
<stop offset="0.0685" stop-color="#2DA771"/>
<stop offset="0.4762" stop-color="#15CF74"/>
<stop offset="0.8009" stop-color="#06E775"/>
<stop offset="1" stop-color="#00F076"/>
</linearGradient>
</defs>
</svg>
